<svg aria-hidden="true" style="position:absolute;width:0;height:0;overflow:hidden" xmlns="http://www.w3.org/2000/svg">
  <defs>
    <symbol id="icon-menu" viewBox="0 0 36 32">
      <path d="M5.38 24h24.013v-2.667H5.38V24zm0-6.667h24.013v-2.667H5.38v2.667zM5.38 8v2.667h24.013V8H5.38z"/>
    </symbol>
    <symbol id="icon-Facebook" viewBox="0 0 32 32">
      <path d="M17.489 24.716v-8.715h2.822l.461-3.873h-3.283v-1.886c0-.997.027-1.987 1.514-1.987h1.506V5.486c0-.042-1.293-.136-2.602-.136-2.733 0-4.444 1.605-4.444 4.551v2.227h-3.02v3.873h3.02v8.715h4.026z"/>
    </symbol>
    <symbol id="icon-flower" viewBox="0 0 31 32">
      <path d="M23.538 10.226V5.322a.98.98 0 0 0-.981-.981h-.981V1.399a.98.98 0 0 0-.981-.981c-1.388 0-3.515-.106-6.011 1.389-1.552-.462-2.649-.408-3.796-.408a.98.98 0 0 0-.981.981v1.961h-.981a.98.98 0 0 0-.981.981v4.904c0 3.994 3 7.3 6.865 7.785v12.811a.98.98 0 1 0 1.962 0v-3.433h1.471a5.4 5.4 0 0 0 5.394-5.394v-1.471a.98.98 0 0 0-.981-.981h-2.452a5.37 5.37 0 0 0-3.433 1.236V18.01a7.84 7.84 0 0 0 6.865-7.784zm-1.961 0a5.878 5.878 0 0 1-1.992 4.403 3.99 3.99 0 0 0 .03-.48 9.764 9.764 0 0 0-2.456-6.484 7.826 7.826 0 0 1 4.417-1.362v3.923zM19.615 2.38v2.159c-.181.037-.361.079-.54.126a9.807 9.807 0 0 0-2.154-1.809 7.834 7.834 0 0 1 2.694-.476zm-7.846.981c1.948 0 3.841.711 5.312 2.071a9.84 9.84 0 0 0-1.392.874 9.771 9.771 0 0 0-3.92-1.767V3.361zm-1.961 6.865V6.303c4.326 0 7.846 3.52 7.846 7.846a1.962 1.962 0 0 1-2.013 1.96c-3.445-.085-5.833-2.822-5.833-5.883zm10.298 11.278h1.471v.49a3.437 3.437 0 0 1-3.433 3.433h-1.471v-.49a3.437 3.437 0 0 1 3.433-3.433z"/>
    </symbol>
    <symbol id="icon-Google" viewBox="0 0 32 32">
      <path d="M25.269 13.873h-8.686c0 .903 0 2.71-.006 3.613h5.033c-.193.903-.877 2.168-1.843 2.805-.001-.001-.002.005-.004.005-1.285.848-2.98 1.041-4.239.788a5.59 5.59 0 0 1-4.168-3.64c.004-.003.007-.028.009-.03-.397-1.127-.397-2.637 0-3.54h-.001c.511-1.66 2.12-3.175 4.096-3.59 1.589-.337 3.382.028 4.701 1.262.175-.172 2.427-2.37 2.596-2.549-4.505-4.08-11.719-2.645-14.418 2.624h-.001l-.005.01a8.83 8.83 0 0 0 .009 8.102l-.009.007a9.202 9.202 0 0 0 5.856 4.668c2.721.714 6.185.226 8.505-1.872l.003.003c1.966-1.77 3.189-4.787 2.571-8.664z"/>
    </symbol>
    <symbol id="icon-Linkedin" viewBox="0 0 32 32">
      <path d="M26.329 24.715h-3.973V17.48c0-1.985-.841-3.092-2.35-3.092-1.642 0-2.616 1.154-2.616 3.092v7.235h-3.973V11.277h3.973v1.511s1.247-2.276 4.055-2.276c2.81 0 4.884 1.784 4.884 5.476v8.726zM7.608 7.93a1.937 1.937 0 1 1 0-3.873 1.937 1.937 0 0 1 0 3.873zM5.671 24.715h3.873V11.804H5.671v12.911z"/>
    </symbol>
    <symbol id="icon-arrow-up" viewBox="0 0 57 32">
      <path d="M54.243 24.186a3.837 3.837 0 0 1-5.426 5.426L27.838 8.633 6.55 29.921a3.837 3.837 0 0 1-5.426-5.426L24.186 1.433A3.823 3.823 0 0 1 26.956.31c1.4-.6 3.083-.328 4.225.814l23.062 23.062z"/>
    </symbol>
    <symbol id="icon-search" viewBox="0 0 32 32">
      <path d="M22.222 19.556h-1.404l-.498-.48a11.507 11.507 0 0 0 2.791-7.52C23.111 5.174 17.938 0 11.555 0S-.001 5.173-.001 11.556c0 6.382 5.173 11.556 11.556 11.556 2.862 0 5.493-1.049 7.52-2.791l.48.498v1.404l8.889 8.871 2.649-2.649-8.871-8.889zm-10.666 0c-4.427 0-8-3.573-8-8s3.573-8 8-8 8 3.573 8 8-3.573 8-8 8z"/>
    </symbol>
  </defs>
</svg>
